<svg width="54" height="54" viewBox="0 0 54 54" fill="none" xmlns="http://www.w3.org/2000/svg">
<path d="M27 54C41.9117 54 54 41.9117 54 27C54 12.0883 41.9117 0 27 0C12.0883 0 0 12.0883 0 27C0 41.9117 12.0883 54 27 54Z" fill="#2B2875"/>
<path d="M35.5519 23.803L35.0088 28.5065C34.9863 28.7211 34.8857 28.92 34.7262 29.0653C34.5667 29.2107 34.3594 29.2924 34.1436 29.295H29.2345L29.21 43.2399C29.2116 43.4051 29.1482 43.5644 29.0334 43.6833C28.9185 43.8021 28.7615 43.871 28.5963 43.875H23.6228C23.5401 43.8751 23.4583 43.8584 23.3822 43.8261C23.3061 43.7937 23.2373 43.7463 23.18 43.6867C23.1227 43.6271 23.078 43.5565 23.0486 43.4792C23.0193 43.4019 23.0059 43.3194 23.0092 43.2368V29.295H19.3274C19.2117 29.2938 19.0974 29.2698 18.9911 29.2245C18.8847 29.1791 18.7883 29.1132 18.7074 29.0306C18.6265 28.948 18.5626 28.8502 18.5195 28.7429C18.4764 28.6356 18.4548 28.5209 18.456 28.4052L18.4376 23.7017C18.436 23.5857 18.4572 23.4704 18.5001 23.3626C18.543 23.2548 18.6068 23.1565 18.6877 23.0733C18.7686 22.9901 18.8651 22.9236 18.9717 22.8777C19.0783 22.8318 19.1929 22.8074 19.309 22.8058H23.0092V18.2649C23.0092 12.9937 26.1387 10.125 30.7287 10.125H34.4903C34.6066 10.1262 34.7215 10.1503 34.8285 10.1961C34.9354 10.2418 35.0323 10.3082 35.1136 10.3914C35.1948 10.4746 35.2588 10.5731 35.3019 10.6811C35.345 10.7891 35.3664 10.9046 35.3647 11.0209V14.9789C35.3664 15.0952 35.345 15.2106 35.3019 15.3187C35.2588 15.4267 35.1948 15.5251 35.1136 15.6084C35.0323 15.6916 34.9354 15.758 34.8285 15.8037C34.7215 15.8494 34.6066 15.8736 34.4903 15.8748H32.183C29.6886 15.8748 29.2038 17.102 29.2038 18.8755V22.8058H34.6867C34.8114 22.8074 34.9343 22.8353 35.0474 22.8878C35.1606 22.9402 35.2613 23.0161 35.343 23.1103C35.4247 23.2044 35.4856 23.3149 35.5216 23.4342C35.5576 23.5536 35.5679 23.6793 35.5519 23.803Z" fill="white"/>
</svg>
