<svg width="97" height="97" viewBox="0 0 97 97" fill="none" xmlns="http://www.w3.org/2000/svg">
<path d="M48.4264 96.8528C75.1716 96.8528 96.8528 75.1716 96.8528 48.4264C96.8528 21.6812 75.1716 0 48.4264 0C21.6812 0 0 21.6812 0 48.4264C0 75.1716 21.6812 96.8528 48.4264 96.8528Z" fill="#2B2875"/>
<path d="M63.7682 42.6923L62.7941 51.1284C62.7537 51.5133 62.5733 51.87 62.2872 52.1307C62.0012 52.3914 61.6293 52.538 61.2423 52.5427H52.4375L52.3935 77.5538C52.3964 77.8502 52.2826 78.1358 52.0767 78.349C51.8707 78.5621 51.5892 78.6857 51.2929 78.6929H42.3725C42.2242 78.693 42.0774 78.6632 41.9409 78.6051C41.8044 78.5471 41.6811 78.462 41.5783 78.3551C41.4755 78.2482 41.3953 78.1217 41.3427 77.983C41.29 77.8443 41.266 77.6965 41.2719 77.5483V52.5427H34.6683C34.4609 52.5405 34.2559 52.4975 34.0651 52.4161C33.8743 52.3348 33.7015 52.2166 33.5563 52.0684C33.4112 51.9202 33.2967 51.7449 33.2193 51.5524C33.142 51.36 33.1033 51.1542 33.1054 50.9468L33.0724 42.5107C33.0695 42.3026 33.1076 42.0959 33.1846 41.9025C33.2616 41.7091 33.3759 41.5327 33.521 41.3835C33.6661 41.2343 33.8392 41.1151 34.0304 41.0328C34.2216 40.9505 34.4271 40.9067 34.6353 40.9038H41.2719V32.7594C41.2719 23.3052 46.885 18.1599 55.1174 18.1599H61.8641C62.0727 18.1621 62.2788 18.2054 62.4707 18.2874C62.6625 18.3694 62.8362 18.4884 62.9819 18.6377C63.1276 18.787 63.2425 18.9636 63.3198 19.1573C63.3971 19.3511 63.4354 19.5582 63.4325 19.7668V26.8657C63.4354 27.0742 63.3971 27.2814 63.3198 27.4751C63.2425 27.6689 63.1276 27.8455 62.9819 27.9947C62.8362 28.144 62.6625 28.2631 62.4707 28.3451C62.2788 28.4271 62.0727 28.4704 61.8641 28.4725H57.7259C53.2519 28.4725 52.3824 30.6737 52.3824 33.8545V40.9038H62.2163C62.4399 40.9066 62.6605 40.9567 62.8633 41.0508C63.0662 41.145 63.2469 41.2809 63.3935 41.4499C63.5401 41.6188 63.6492 41.8168 63.7138 42.031C63.7784 42.2451 63.7969 42.4705 63.7682 42.6923Z" fill="white"/>
</svg>
