<svg width="55" height="54" viewBox="0 0 55 54" fill="none" xmlns="http://www.w3.org/2000/svg">
<g clip-path="url(#clip0_740_122)">
<circle cx="28.1328" cy="26.775" r="19.125" fill="white"/>
<path d="M33.0703 27.0001C33.0703 29.8543 30.7566 32.168 27.9023 32.168C25.0481 32.168 22.7344 29.8543 22.7344 27.0001C22.7344 24.1458 25.0481 21.8321 27.9023 21.8321C30.7566 21.8321 33.0703 24.1458 33.0703 27.0001Z" fill="#2B2875"/>
<path d="M39.992 17.8563C39.7436 17.1831 39.3472 16.5738 38.8323 16.0736C38.3321 15.5587 37.7232 15.1623 37.0496 14.9139C36.5033 14.7017 35.6826 14.4492 34.171 14.3804C32.5359 14.3058 32.0456 14.2897 27.9059 14.2897C23.7659 14.2897 23.2756 14.3054 21.6409 14.38C20.1293 14.4492 19.3082 14.7017 18.7623 14.9139C18.0887 15.1623 17.4794 15.5587 16.9796 16.0736C16.4646 16.5738 16.0683 17.1827 15.8195 17.8563C15.6073 18.4026 15.3548 19.2237 15.2859 20.7353C15.2114 22.37 15.1953 22.8603 15.1953 27.0004C15.1953 31.14 15.2114 31.6303 15.2859 33.2655C15.3548 34.777 15.6073 35.5977 15.8195 36.144C16.0683 36.8176 16.4642 37.4265 16.9792 37.9267C17.4794 38.4417 18.0883 38.838 18.7619 39.0864C19.3082 39.299 20.1293 39.5516 21.6409 39.6204C23.2756 39.6949 23.7655 39.7106 27.9055 39.7106C32.046 39.7106 32.5363 39.6949 34.1706 39.6204C35.6822 39.5516 36.5033 39.299 37.0496 39.0864C38.4017 38.5648 39.4704 37.4962 39.992 36.144C40.2042 35.5977 40.4567 34.777 40.5259 33.2655C40.6005 31.6303 40.6162 31.14 40.6162 27.0004C40.6162 22.8603 40.6005 22.37 40.5259 20.7353C40.4571 19.2237 40.2046 18.4026 39.992 17.8563ZM27.9059 34.9612C23.5088 34.9612 19.9443 31.3971 19.9443 27C19.9443 22.6028 23.5088 19.0387 27.9059 19.0387C32.3027 19.0387 35.8672 22.6028 35.8672 27C35.8672 31.3971 32.3027 34.9612 27.9059 34.9612ZM36.1819 20.5845C35.1544 20.5845 34.3214 19.7514 34.3214 18.724C34.3214 17.6965 35.1544 16.8634 36.1819 16.8634C37.2094 16.8634 38.0425 17.6965 38.0425 18.724C38.0421 19.7514 37.2094 20.5845 36.1819 20.5845Z" fill="#2B2875"/>
<path d="M27.9062 0C12.9968 0 0.90625 12.0906 0.90625 27C0.90625 41.9094 12.9968 54 27.9062 54C42.8157 54 54.9062 41.9094 54.9062 27C54.9062 12.0906 42.8157 0 27.9062 0ZM43.3166 33.392C43.2417 35.0424 42.9792 36.1692 42.5961 37.1555C41.7906 39.2381 40.1443 40.8844 38.0617 41.6898C37.0759 42.073 35.9487 42.335 34.2986 42.4104C32.6453 42.4858 32.1172 42.5039 27.9067 42.5039C23.6957 42.5039 23.168 42.4858 21.5143 42.4104C19.8643 42.335 18.7371 42.073 17.7512 41.6898C16.7163 41.3005 15.7794 40.6903 15.0049 39.9014C14.2163 39.1273 13.6062 38.19 13.2168 37.1555C12.8337 36.1696 12.5713 35.0424 12.4963 33.3924C12.4201 31.7387 12.4023 31.2105 12.4023 27C12.4023 22.7895 12.4201 22.2613 12.4959 20.608C12.5708 18.9576 12.8329 17.8308 13.216 16.8445C13.6053 15.81 14.2159 14.8727 15.0049 14.0986C15.779 13.3097 16.7163 12.6995 17.7508 12.3102C18.7371 11.927 19.8638 11.665 21.5143 11.5896C23.1676 11.5142 23.6957 11.4961 27.9062 11.4961C32.1168 11.4961 32.6449 11.5142 34.2982 11.59C35.9487 11.665 37.0754 11.927 38.0617 12.3098C39.0962 12.6991 40.0335 13.3097 40.808 14.0986C41.5966 14.8732 42.2072 15.81 42.5961 16.8445C42.9796 17.8308 43.2417 18.9576 43.317 20.608C43.3924 22.2613 43.4102 22.7895 43.4102 27C43.4102 31.2105 43.3924 31.7387 43.3166 33.392V33.392Z" fill="#2B2875"/>
</g>
<defs>
<clipPath id="clip0_740_122">
<rect width="54" height="54" fill="white" transform="translate(0.90625)"/>
</clipPath>
</defs>
</svg>
