<svg width="97" height="97" viewBox="0 0 97 97" fill="none" xmlns="http://www.w3.org/2000/svg">
<g clip-path="url(#clip0_244_73)">
<circle cx="48.8294" cy="48.0229" r="34.302" fill="white"/>
<path d="M57.6964 48.4263C57.6964 53.5456 53.5466 57.6955 48.4273 57.6955C43.308 57.6955 39.1582 53.5456 39.1582 48.4263C39.1582 43.307 43.308 39.1572 48.4273 39.1572C53.5466 39.1572 57.6964 43.307 57.6964 48.4263Z" fill="#2B2875"/>
<path d="M70.1035 32.0267C69.6579 30.8193 68.9471 29.7264 68.0234 28.8293C67.1264 27.9057 66.0342 27.1948 64.8261 26.7492C63.8463 26.3687 62.3743 25.9157 59.6632 25.7923C56.7304 25.6586 55.8511 25.6298 48.4263 25.6298C41.0008 25.6298 40.1215 25.6578 37.1894 25.7916C34.4783 25.9157 33.0056 26.3687 32.0265 26.7492C30.8184 27.1948 29.7255 27.9057 28.8292 28.8293C27.9055 29.7264 27.1947 30.8185 26.7484 32.0267C26.3678 33.0065 25.9149 34.4792 25.7915 37.1903C25.6577 40.1224 25.6289 41.0017 25.6289 48.4272C25.6289 55.8519 25.6577 56.7312 25.7915 59.6641C25.9149 62.3752 26.3678 63.8471 26.7484 64.8269C27.1947 66.0351 27.9048 67.1272 28.8285 68.0243C29.7255 68.9479 30.8177 69.6588 32.0258 70.1044C33.0056 70.4857 34.4783 70.9386 37.1894 71.062C40.1215 71.1958 41.0001 71.2238 48.4256 71.2238C55.8518 71.2238 56.7311 71.1958 59.6625 71.062C62.3736 70.9386 63.8463 70.4857 64.8261 70.1044C67.2513 69.1689 69.168 67.2521 70.1035 64.8269C70.4841 63.8471 70.937 62.3752 71.0612 59.6641C71.1949 56.7312 71.223 55.8519 71.223 48.4272C71.223 41.0017 71.1949 40.1224 71.0612 37.1903C70.9378 34.4792 70.4848 33.0065 70.1035 32.0267ZM48.4263 62.7055C40.5397 62.7055 34.1465 56.313 34.1465 48.4264C34.1465 40.5399 40.5397 34.1474 48.4263 34.1474C56.3122 34.1474 62.7054 40.5399 62.7054 48.4264C62.7054 56.313 56.3122 62.7055 48.4263 62.7055ZM63.2699 36.9198C61.427 36.9198 59.9329 35.4257 59.9329 33.5828C59.9329 31.74 61.427 30.2458 63.2699 30.2458C65.1128 30.2458 66.6069 31.74 66.6069 33.5828C66.6062 35.4257 65.1128 36.9198 63.2699 36.9198Z" fill="#2B2875"/>
<path d="M48.4264 0C21.6853 0 0 21.6853 0 48.4264C0 75.1675 21.6853 96.8528 48.4264 96.8528C75.1675 96.8528 96.8528 75.1675 96.8528 48.4264C96.8528 21.6853 75.1675 0 48.4264 0ZM76.066 59.8909C75.9315 62.851 75.4608 64.872 74.7736 66.641C73.329 70.3763 70.3763 73.329 66.641 74.7736C64.8727 75.4608 62.851 75.9308 59.8916 76.066C56.9263 76.2012 55.979 76.2337 48.4271 76.2337C40.8745 76.2337 39.928 76.2012 36.9619 76.066C34.0025 75.9308 31.9808 75.4608 30.2126 74.7736C28.3564 74.0753 26.676 72.981 25.2869 71.5659C23.8726 70.1775 22.7782 68.4964 22.0799 66.641C21.3927 64.8727 20.922 62.851 20.7875 59.8916C20.6508 56.9255 20.6191 55.9782 20.6191 48.4264C20.6191 40.8745 20.6508 39.9272 20.7868 36.9619C20.9213 34.0018 21.3912 31.9808 22.0784 30.2118C22.7767 28.3564 23.8718 26.6753 25.2869 25.2869C26.6753 23.8718 28.3564 22.7775 30.2118 22.0792C31.9808 21.392 34.0018 20.922 36.9619 20.7868C39.9272 20.6516 40.8745 20.6191 48.4264 20.6191C55.9782 20.6191 56.9255 20.6516 59.8909 20.7875C62.851 20.922 64.872 21.392 66.641 22.0784C68.4964 22.7767 70.1775 23.8718 71.5667 25.2869C72.981 26.676 74.0761 28.3564 74.7736 30.2118C75.4616 31.9808 75.9315 34.0018 76.0667 36.9619C76.202 39.9272 76.2337 40.8745 76.2337 48.4264C76.2337 55.9782 76.202 56.9255 76.066 59.8909Z" fill="#2B2875"/>
</g>
<defs>
<clipPath id="clip0_244_73">
<rect width="96.8528" height="96.8528" fill="white"/>
</clipPath>
</defs>
</svg>
