<svg width="62" height="62" viewBox="0 0 62 62" fill="none" xmlns="http://www.w3.org/2000/svg">
<g clip-path="url(#clip0_242_23)">
<path d="M31 0C13.9056 0 0 13.9069 0 31C0 48.0931 13.9056 62 31 62C48.0944 62 62 48.0931 62 31C62 13.9069 48.0944 0 31 0ZM43.3238 32.0861L25.2405 43.7111C25.0286 43.8485 24.7839 43.9167 24.5417 43.9167C24.3298 43.9167 24.1153 43.8637 23.9236 43.759C23.5073 43.532 23.25 43.098 23.25 42.625V19.375C23.25 18.902 23.5073 18.468 23.9236 18.241C24.3323 18.0164 24.8444 18.0303 25.2405 18.2889L43.3238 29.9139C43.6922 30.151 43.9167 30.561 43.9167 31C43.9167 31.439 43.6922 31.8489 43.3238 32.0861Z" fill="white"/>
</g>
<defs>
<clipPath id="clip0_242_23">
<rect width="62" height="62" fill="white"/>
</clipPath>
</defs>
</svg>
