<svg width="46" height="47" viewBox="0 0 46 47" fill="none" xmlns="http://www.w3.org/2000/svg">
<path d="M44.2575 42.2455L38.5078 36.2393C36.8315 34.4883 36.7166 31.8084 37.7306 29.6065C38.9953 26.8602 39.6685 23.8338 39.6689 20.695C39.6689 15.1673 37.6079 9.97011 33.8655 6.06149C30.1238 2.15287 25.1491 0 19.8567 0C14.565 0 9.5897 2.15287 5.84795 6.06149C-1.8764 14.131 -1.8764 27.2604 5.84795 35.3285C9.5897 39.2378 14.565 41.3907 19.8567 41.3907C22.7049 41.3903 25.4563 40.7585 27.9745 39.5675C30.3132 38.4614 33.2102 38.5825 34.9992 40.4513L40.4871 46.184C41.0073 46.728 41.6901 47 42.3723 47C43.0545 47 43.7374 46.728 44.2575 46.184C45.2991 45.0967 45.2991 43.3328 44.2575 42.2455ZM9.61835 31.39C3.97317 25.4931 3.97383 15.8976 9.61835 10C12.3531 7.14404 15.9893 5.57053 19.8567 5.57053C23.7248 5.57053 27.3604 7.14404 30.0951 10C32.8298 12.8567 34.3362 16.6552 34.3362 20.695C34.3362 24.7356 32.8298 28.5333 30.0951 31.39C27.3604 34.2467 23.7248 35.8202 19.8567 35.8202C15.9893 35.8202 12.3531 34.2467 9.61835 31.39Z" fill="black"/>
</svg>
