<svg width="97" height="97" viewBox="0 0 97 97" fill="none" xmlns="http://www.w3.org/2000/svg">
<circle cx="48.4257" cy="48.4263" r="37.1269" fill="white"/>
<path d="M48.4264 0C21.7242 0 0 21.7242 0 48.4264C0 75.1266 21.7242 96.8528 48.4264 96.8528C75.1266 96.8528 96.8528 75.1266 96.8528 48.4264C96.8528 21.7242 75.1305 0 48.4264 0ZM70.0296 37.3429C70.0511 37.8228 70.0628 38.3065 70.0628 38.7903C70.0628 53.5195 58.8545 70.4978 38.3475 70.4978C32.0528 70.4978 26.1931 68.6584 21.2619 65.4944C22.1338 65.5978 23.0214 65.6505 23.9206 65.6505C29.1444 65.6505 33.9488 63.8676 37.7642 60.8792C32.8877 60.7895 28.7699 57.5671 27.3518 53.1372C28.0306 53.2659 28.7309 53.3381 29.4467 53.3381C30.463 53.3381 31.45 53.2054 32.3844 52.9499C27.2854 51.9278 23.4446 47.4238 23.4446 42.0205C23.4446 41.9737 23.4446 41.9249 23.4466 41.8801C24.9486 42.713 26.6671 43.2163 28.4929 43.2728C25.5045 41.2773 23.5363 37.8637 23.5363 33.9976C23.5363 31.9533 24.0845 30.0378 25.0442 28.3915C30.5391 35.1367 38.7552 39.5725 48.0168 40.0406C47.8256 39.2233 47.73 38.3748 47.73 37.499C47.73 31.3447 52.7197 26.353 58.874 26.353C62.0808 26.353 64.9736 27.7068 67.0101 29.872C69.5517 29.3726 71.9315 28.448 74.0909 27.1665C73.2521 29.7705 71.4907 31.9533 69.1831 33.3344C71.4399 33.0652 73.5935 32.4683 75.5851 31.5807C74.0987 33.8123 72.2085 35.7765 70.0296 37.3429Z" fill="#2B2875"/>
</svg>
