<svg width="55" height="54" viewBox="0 0 55 54" fill="none" xmlns="http://www.w3.org/2000/svg">
<circle cx="27.8094" cy="26.9999" r="20.7" fill="white"/>
<path d="M27.8086 0C12.9209 0 0.808594 12.1123 0.808594 27C0.808594 41.8867 12.9209 54 27.8086 54C42.6952 54 54.8086 41.8867 54.8086 27C54.8086 12.1123 42.6974 0 27.8086 0ZM39.8534 20.8204C39.8654 21.088 39.8719 21.3577 39.8719 21.6274C39.8719 29.8396 33.6227 39.3058 22.1891 39.3058C18.6795 39.3058 15.4125 38.2803 12.6631 36.5162C13.1492 36.5739 13.6441 36.6032 14.1455 36.6032C17.058 36.6032 19.7367 35.6092 21.8639 33.943C19.145 33.893 16.8492 32.0963 16.0585 29.6265C16.437 29.6983 16.8274 29.7385 17.2265 29.7385C17.7932 29.7385 18.3435 29.6645 18.8644 29.5221C16.0215 28.9522 13.8801 26.441 13.8801 23.4284C13.8801 23.4023 13.8801 23.3751 13.8812 23.3501C14.7186 23.8145 15.6768 24.0951 16.6947 24.1266C15.0286 23.0141 13.9312 21.1108 13.9312 18.9552C13.9312 17.8155 14.2368 16.7475 14.7719 15.8296C17.8356 19.5904 22.4164 22.0635 27.5802 22.3245C27.4736 21.8688 27.4203 21.3958 27.4203 20.9074C27.4203 17.4762 30.2023 14.6931 33.6336 14.6931C35.4216 14.6931 37.0344 15.4478 38.1699 16.655C39.587 16.3766 40.9138 15.8611 42.1177 15.1466C41.6501 16.5985 40.668 17.8155 39.3814 18.5855C40.6397 18.4354 41.8404 18.1026 42.9508 17.6078C42.1221 18.8519 41.0682 19.9471 39.8534 20.8204V20.8204Z" fill="#2B2875"/>
</svg>
