<svg width="212" height="58" viewBox="0 0 212 58" fill="none" xmlns="http://www.w3.org/2000/svg">
<path d="M32.5801 57.4443C31.1836 57.4443 30.002 57.2188 29.0352 56.7676C28.0684 56.3379 27.2627 55.7148 26.6182 54.8984C26.0811 54.2324 25.6299 53.4805 25.2646 52.6426C24.8994 51.8047 24.502 50.752 24.0723 49.4844C22.1816 50.0859 20.1406 50.3867 17.9492 50.3867C14.2754 50.3867 11.4395 49.3877 9.44141 47.3896C7.22852 45.1768 6.12207 41.7607 6.12207 37.1416C6.12207 35.3154 6.29395 33.2852 6.6377 31.0508C6.98145 28.8164 7.47559 26.582 8.12012 24.3477C8.80762 21.9629 9.65625 19.6855 10.666 17.5156C11.6973 15.3457 12.8467 13.4443 14.1143 11.8115C17.0576 8.05176 20.3555 6.17188 24.0078 6.17188C24.6738 6.17188 25.2646 6.21484 25.7803 6.30078C26.3174 6.36523 26.876 6.50488 27.4561 6.71973C25.5439 7.83691 23.6533 10.2646 21.7842 14.0029C20.0654 17.4619 18.6582 21.3613 17.5625 25.7012C16.4453 30.0625 15.8867 33.9619 15.8867 37.3994V38.8818C15.8652 39.29 15.9082 39.7412 16.0156 40.2354C17.7559 39.8271 19.1201 39.623 20.1084 39.623C21.2041 39.623 22.1709 39.7842 23.0088 40.1064C23.8467 40.4072 24.6416 40.8477 25.3936 41.4277C26.4893 40.0098 27.5312 38.291 28.5195 36.2715C29.5078 34.2305 30.3779 32.0391 31.1299 29.6973C31.8818 27.3125 32.4619 24.874 32.8701 22.3818C33.2998 19.8682 33.5146 17.4404 33.5146 15.0986C33.5146 13.0361 33.3965 11.3066 33.1602 9.91016C32.9238 8.51367 32.5049 7.35352 31.9033 6.42969C31.2588 5.44141 30.3887 4.71094 29.293 4.23828C28.1973 3.76562 26.79 3.5293 25.0713 3.5293C22.5576 3.5293 20.1514 3.92676 17.8525 4.72168C15.5537 5.49512 13.5342 6.6123 11.7939 8.07324C9.98926 9.59863 8.58203 11.4141 7.57227 13.5195C6.5625 15.625 6.05762 17.9561 6.05762 20.5127C6.05762 21.4795 6.17578 22.3174 6.41211 23.0264C6.47656 23.3057 6.55176 23.5098 6.6377 23.6387C6.70215 23.7891 6.73438 23.9287 6.73438 24.0576C4.54297 24.0576 2.87793 23.6279 1.73926 22.7686C0.62207 21.8877 0.0634766 20.4697 0.0634766 18.5146C0.0634766 15.4854 1.33105 12.5527 3.86621 9.7168C6.3584 6.9668 9.5918 4.76465 13.5664 3.11035C17.7559 1.37012 22.1172 0.5 26.6504 0.5C32.1504 0.5 36.2002 2.0791 38.7998 5.2373C41.1201 8.07324 42.2803 12.123 42.2803 17.3867C42.2803 20.6738 41.8506 24.0791 40.9912 27.6025C40.0244 31.5127 38.6494 35.0254 36.8662 38.1406C34.8467 41.707 32.4512 44.5215 29.6797 46.584C30.7539 48.2168 31.8496 49.4521 32.9668 50.29C34.4062 51.3643 36.0605 51.9014 37.9297 51.9014C38.4453 51.9014 38.9287 51.8584 39.3799 51.7725C38.5205 53.9639 37.5215 55.4785 36.3828 56.3164C35.373 57.0684 34.1055 57.4443 32.5801 57.4443ZM19.7217 45.0371C20.667 45.0371 21.5049 44.8008 22.2354 44.3281C21.7842 43.5977 21.2686 43.0391 20.6885 42.6523C20.1084 42.2656 19.3672 42.0723 18.4648 42.0723C17.6914 42.0723 17.0576 42.1582 16.5635 42.3301C17.1436 44.1348 18.1963 45.0371 19.7217 45.0371ZM51.4903 50.3867C48.9766 50.3867 46.9464 49.6025 45.3995 48.0342C43.5948 46.1865 42.6925 43.4365 42.6925 39.7842C42.6925 38.2373 42.8536 36.6045 43.1759 34.8857C43.4766 33.167 43.9278 31.4697 44.5294 29.7939C45.9044 26.0127 47.7843 22.9619 50.169 20.6416C52.919 17.999 56.088 16.6777 59.6759 16.6777C61.4591 16.6777 62.7911 16.9893 63.672 17.6123C64.5743 18.2139 65.0255 19.0195 65.0255 20.0293V20.5127L65.7345 17H75.2413L70.504 39.4297C70.3106 40.0742 70.2139 40.7832 70.2139 41.5566C70.2139 43.4473 71.1163 44.3926 72.921 44.3926C74.1241 44.3926 75.2198 43.7803 76.2081 42.5557C77.046 41.5244 77.7335 40.0635 78.2706 38.1729H81.0421C79.8604 41.5244 78.4317 44.1777 76.7559 46.1328C75.338 47.7441 73.7374 48.9043 71.9542 49.6133C70.6436 50.1289 69.2579 50.3867 67.797 50.3867C65.9278 50.3867 64.4346 49.8818 63.3175 48.8721C62.2218 47.8408 61.5557 46.3262 61.3194 44.3281C60.0733 46.0898 58.7628 47.4648 57.3878 48.4531C55.6261 49.7422 53.6602 50.3867 51.4903 50.3867ZM55.7764 44.0059C56.2706 44.0059 56.7862 43.877 57.3233 43.6191C57.8819 43.3613 58.419 42.9961 58.9346 42.5234C60.0948 41.4062 60.8682 39.9561 61.255 38.1729L64.4132 23.2842C64.4132 23.0693 64.3595 22.8223 64.252 22.543C64.1661 22.2422 64.0372 21.9629 63.8653 21.7051C63.3497 21.082 62.63 20.7705 61.7061 20.7705C60.8253 20.7705 59.9659 21.0605 59.128 21.6406C58.3116 22.2207 57.5382 23.0264 56.8077 24.0576C55.5186 25.9268 54.4552 28.3652 53.6173 31.373C53.2305 32.7051 52.9405 34.0264 52.7471 35.3369C52.5538 36.626 52.4571 37.7969 52.4571 38.8496C52.4571 41.041 52.8653 42.5234 53.6817 43.2969C53.961 43.5977 54.2725 43.791 54.6163 43.877C54.96 43.9629 55.3468 44.0059 55.7764 44.0059ZM86.9005 50.3867C84.3869 50.3867 82.3566 49.6025 80.8097 48.0342C79.005 46.1865 78.1027 43.4365 78.1027 39.7842C78.1027 38.2373 78.2638 36.6045 78.5861 34.8857C78.8869 33.167 79.338 31.4697 79.9396 29.7939C81.3146 26.0127 83.1945 22.9619 85.5793 20.6416C88.3293 17.999 91.4982 16.6777 95.0861 16.6777C96.8693 16.6777 98.2013 16.9893 99.0822 17.6123C99.9845 18.2139 100.436 19.0195 100.436 20.0293V20.5127L101.145 17H110.652L105.914 39.4297C105.721 40.0742 105.624 40.7832 105.624 41.5566C105.624 43.4473 106.527 44.3926 108.331 44.3926C109.534 44.3926 110.63 43.7803 111.618 42.5557C112.456 41.5244 113.144 40.0635 113.681 38.1729H116.452C115.271 41.5244 113.842 44.1777 112.166 46.1328C110.748 47.7441 109.148 48.9043 107.364 49.6133C106.054 50.1289 104.668 50.3867 103.207 50.3867C101.338 50.3867 99.8449 49.8818 98.7277 48.8721C97.632 47.8408 96.966 46.3262 96.7296 44.3281C95.4836 46.0898 94.173 47.4648 92.798 48.4531C91.0363 49.7422 89.0705 50.3867 86.9005 50.3867ZM91.1867 44.0059C91.6808 44.0059 92.1964 43.877 92.7336 43.6191C93.2921 43.3613 93.8293 42.9961 94.3449 42.5234C95.505 41.4062 96.2785 39.9561 96.6652 38.1729L99.8234 23.2842C99.8234 23.0693 99.7697 22.8223 99.6623 22.543C99.5763 22.2422 99.4474 21.9629 99.2755 21.7051C98.7599 21.082 98.0402 20.7705 97.1164 20.7705C96.2355 20.7705 95.3761 21.0605 94.5382 21.6406C93.7218 22.2207 92.9484 23.0264 92.2179 24.0576C90.9289 25.9268 89.8654 28.3652 89.0275 31.373C88.6408 32.7051 88.3507 34.0264 88.1574 35.3369C87.964 36.626 87.8673 37.7969 87.8673 38.8496C87.8673 41.041 88.2755 42.5234 89.0919 43.2969C89.3712 43.5977 89.6828 43.791 90.0265 43.877C90.3703 43.9629 90.757 44.0059 91.1867 44.0059ZM122.311 50.3867C119.797 50.3867 117.767 49.6025 116.22 48.0342C114.415 46.1865 113.513 43.4365 113.513 39.7842C113.513 38.2373 113.674 36.6045 113.996 34.8857C114.297 33.167 114.748 31.4697 115.35 29.7939C116.725 26.0127 118.605 22.9619 120.989 20.6416C123.739 17.999 126.908 16.6777 130.496 16.6777C132.28 16.6777 133.612 16.9893 134.492 17.6123C135.395 18.2139 135.846 19.0195 135.846 20.0293V20.5127L136.555 17H146.062L141.324 39.4297C141.131 40.0742 141.034 40.7832 141.034 41.5566C141.034 43.4473 141.937 44.3926 143.741 44.3926C144.945 44.3926 146.04 43.7803 147.029 42.5557C147.866 41.5244 148.554 40.0635 149.091 38.1729H151.863C150.681 41.5244 149.252 44.1777 147.576 46.1328C146.158 47.7441 144.558 48.9043 142.775 49.6133C141.464 50.1289 140.078 50.3867 138.617 50.3867C136.748 50.3867 135.255 49.8818 134.138 48.8721C133.042 47.8408 132.376 46.3262 132.14 44.3281C130.894 46.0898 129.583 47.4648 128.208 48.4531C126.447 49.7422 124.481 50.3867 122.311 50.3867ZM126.597 44.0059C127.091 44.0059 127.607 43.877 128.144 43.6191C128.702 43.3613 129.239 42.9961 129.755 42.5234C130.915 41.4062 131.689 39.9561 132.075 38.1729L135.234 23.2842C135.234 23.0693 135.18 22.8223 135.073 22.543C134.987 22.2422 134.858 21.9629 134.686 21.7051C134.17 21.082 133.45 20.7705 132.527 20.7705C131.646 20.7705 130.786 21.0605 129.948 21.6406C129.132 22.2207 128.359 23.0264 127.628 24.0576C126.339 25.9268 125.276 28.3652 124.438 31.373C124.051 32.7051 123.761 34.0264 123.568 35.3369C123.374 36.626 123.278 37.7969 123.278 38.8496C123.278 41.041 123.686 42.5234 124.502 43.2969C124.781 43.5977 125.093 43.791 125.437 43.877C125.781 43.9629 126.167 44.0059 126.597 44.0059ZM157.302 50.3867C155.712 50.3867 154.305 50.1504 153.08 49.6777C151.856 49.1836 150.825 48.5068 149.987 47.6475C149.213 46.8525 148.633 45.9717 148.246 45.0049C147.86 44.0166 147.666 42.9961 147.666 41.9434C147.666 40.5039 148.032 39.2041 148.762 38.0439C149.407 37.0127 150.212 36.2715 151.179 35.8203C152.898 32.7695 154.391 29.6758 155.659 26.5391C156.926 23.4023 158.14 19.9756 159.3 16.2588L169.065 14.9697C169.323 20.5557 169.559 24.8418 169.774 27.8281C169.989 30.9004 170.171 33.1562 170.322 34.5957C170.451 36.2715 170.515 37.7324 170.515 38.9785C170.515 40.0957 170.429 40.9336 170.257 41.4922C172.234 40.332 173.813 39.2256 174.994 38.1729H177.766C176.198 39.999 174.576 41.5674 172.9 42.8779C171.245 44.1885 169.505 45.3701 167.679 46.4229C166.368 47.7979 164.725 48.8184 162.748 49.4844C161.03 50.0859 159.214 50.3867 157.302 50.3867ZM155.207 45.166C156.862 45.166 158.183 44.7148 159.171 43.8125C160.353 42.7383 160.944 41.1484 160.944 39.043C160.944 38.1621 160.89 37.0557 160.783 35.7236L160.621 33.7578C160.428 32.0605 160.235 30.0947 160.041 27.8604L159.687 23.4131C159.064 25.4111 158.323 27.3984 157.463 29.375C156.604 31.3301 155.562 33.5 154.337 35.8848C155.347 36.4434 155.852 37.2061 155.852 38.1729C155.852 39.0322 155.594 39.7734 155.078 40.3965C154.52 41.084 153.811 41.4277 152.951 41.4277C152.522 41.4277 152.157 41.374 151.856 41.2666C151.576 41.1377 151.351 40.9014 151.179 40.5576C151.179 42.1475 151.491 43.3184 152.114 44.0703C152.737 44.8008 153.768 45.166 155.207 45.166ZM199.48 50.3867C196.751 50.3867 194.732 49.6133 193.421 48.0664C192.283 46.7344 191.713 45.0264 191.713 42.9424C191.713 41.9541 191.831 40.8047 192.068 39.4941C192.326 38.1836 192.702 36.4971 193.196 34.4346C193.69 32.3291 194.055 30.6533 194.291 29.4072C194.549 28.1396 194.678 27.0439 194.678 26.1201C194.678 23.8643 193.883 22.7363 192.293 22.7363C191.176 22.7363 190.145 23.3271 189.2 24.5088C188.405 25.5186 187.717 26.958 187.137 28.8271L182.658 50H173.151L182.722 5.1084L192.487 3.78711L188.942 20.416C190.231 18.9766 191.617 17.9668 193.099 17.3867C194.195 16.957 195.376 16.7422 196.644 16.7422C198.878 16.7422 200.64 17.3223 201.929 18.4824C203.304 19.75 203.992 21.6514 203.992 24.1865C203.992 25.7119 203.712 27.6992 203.154 30.1484C203.003 30.8574 202.756 31.9209 202.413 33.3389C201.789 35.7236 201.338 37.625 201.059 39.043C200.887 39.9453 200.801 40.6758 200.801 41.2344C200.801 42.1152 200.995 42.8027 201.381 43.2969C201.789 43.7695 202.477 44.0059 203.444 44.0059C204.754 44.0059 205.861 43.4688 206.763 42.3945C207.451 41.5781 208.192 40.1709 208.987 38.1729H211.758C210.125 43.0068 208.063 46.3906 205.571 48.3242C203.809 49.6992 201.779 50.3867 199.48 50.3867Z" fill="white"/>
</svg>
