<svg width="106" height="106" viewBox="0 0 106 106" fill="none" xmlns="http://www.w3.org/2000/svg">
<path d="M53 0C23.774 0 0 23.7763 0 53C0 82.2237 23.774 106 53 106C82.226 106 106 82.2237 106 53C106 23.7763 82.226 0 53 0ZM74.0698 54.8569L43.1532 74.7319C42.7909 74.9668 42.3725 75.0834 41.9584 75.0834C41.5961 75.0834 41.2294 74.9927 40.9017 74.8138C40.1899 74.4257 39.75 73.6837 39.75 72.875V33.125C39.75 32.3163 40.1899 31.5743 40.9017 31.1862C41.6004 30.8023 42.476 30.8259 43.1532 31.2681L74.0698 51.1431C74.6996 51.5485 75.0834 52.2495 75.0834 53C75.0834 53.7505 74.6996 54.4513 74.0698 54.8569Z" fill="white"/>
</svg>
